<svg width="50" height="17" viewBox="0 0 50 17" fill="none" xmlns="http://www.w3.org/2000/svg">
<g clip-path="url(#clip0_1139_1266)">
<path d="M26.1724 5.59459C26.1443 7.81454 28.1508 9.05329 29.6623 9.78987C31.2153 10.5455 31.7369 11.0302 31.7308 11.706C31.7192 12.7402 30.492 13.1967 29.3437 13.2144C27.3402 13.2455 26.1753 12.6735 25.2492 12.241L24.5275 15.6181C25.4566 16.0463 27.1771 16.4196 28.9612 16.436C33.1492 16.436 35.889 14.3688 35.9039 11.1636C35.9203 7.0957 30.2773 6.87054 30.3158 5.05232C30.3291 4.501 30.8552 3.91266 32.008 3.76307C32.5786 3.68751 34.1537 3.62967 35.9395 4.45204L36.6404 1.18457C35.6801 0.83488 34.4458 0.500036 32.909 0.500036C28.9672 0.500036 26.1948 2.59546 26.1724 5.59459ZM43.3755 0.781482C42.6108 0.781482 41.9663 1.22755 41.6787 1.91208L35.6964 16.196H39.8813L40.7141 13.8945H45.8279L46.311 16.196H49.9995L46.7808 0.781482H43.3755ZM43.9609 4.94553L45.1686 10.7339H41.8611L43.9609 4.94553ZM21.0985 0.781674L17.7998 16.1958H21.7876L25.0848 0.781289H21.0985M15.1991 0.781289L11.0484 11.2732L9.36931 2.35237C9.1723 1.35652 8.39428 0.781482 7.53028 0.781482H0.745122L0.650085 1.2291C2.04305 1.53136 3.6257 2.01888 4.58454 2.54052C5.17134 2.85917 5.33866 3.13772 5.53144 3.89493L8.71158 16.196H12.9257L19.3867 0.781482L15.1991 0.781289Z" fill="url(#paint0_linear_1139_1266)"/>
</g>
<defs>
<linearGradient id="paint0_linear_1139_1266" x1="23.338" y1="16.7557" x2="23.7993" y2="0.389206" gradientUnits="userSpaceOnUse">
<stop stop-color="#222357"/>
<stop offset="1" stop-color="#254AA5"/>
</linearGradient>
<clipPath id="clip0_1139_1266">
<rect width="49.3504" height="16" fill="white" transform="translate(0.649597 0.5)"/>
</clipPath>
</defs>
</svg>
