<svg width="62" height="20" viewBox="0 0 62 20" fill="none" xmlns="http://www.w3.org/2000/svg">
<g clip-path="url(#clip0_1240_2252)">
<path d="M40.1069 0.0244141C35.7348 0.0244141 31.8276 2.2906 31.8276 6.47754C31.8276 11.2791 38.7571 11.6108 38.7571 14.023C38.7571 15.0386 37.5931 15.9478 35.6051 15.9478C32.7838 15.9478 30.6751 14.6774 30.6751 14.6774L29.7728 18.9025C29.7728 18.9025 32.202 19.9756 35.4271 19.9756C40.2073 19.9756 43.9687 17.5981 43.9687 13.3397C43.9687 8.26591 37.0103 7.94409 37.0103 5.70522C37.0103 4.90947 37.9658 4.03773 39.9481 4.03773C42.1847 4.03773 44.0096 4.96168 44.0096 4.96168L44.8926 0.880997C44.8926 0.880997 42.9071 0.0244141 40.1069 0.0244141ZM0.105894 0.332419L0 0.948368C0 0.948368 1.8394 1.28497 3.49605 1.95652C5.62909 2.7265 5.78109 3.17479 6.14032 4.56707L10.0549 19.658H15.3027L23.3871 0.332419H18.1515L12.9567 13.472L10.837 2.33424C10.6426 1.05956 9.65787 0.332419 8.45254 0.332419H0.105894ZM25.4924 0.332419L21.3852 19.658H26.3779L30.4706 0.332357H25.4924V0.332419ZM53.3379 0.332419C52.134 0.332419 51.4962 0.976968 51.0281 2.10328L43.7136 19.658H48.9493L49.9622 16.7321H56.3407L56.9567 19.658H61.5764L57.5462 0.332419H53.3379ZM54.0189 5.55359L55.5708 12.8055H51.4131L54.0189 5.55359Z" fill="#1434CB"/>
</g>
<defs>
<clipPath id="clip0_1240_2252">
<rect width="61.5764" height="20" fill="white"/>
</clipPath>
</defs>
</svg>
