<svg width="34" height="20" viewBox="0 0 34 20" fill="none" xmlns="http://www.w3.org/2000/svg">
<g clip-path="url(#clip0_1240_2306)">
<path d="M32 0H1.33333C0.596954 0 0 0.596954 0 1.33333V18.6667C0 19.403 0.596954 20 1.33333 20H32C32.7364 20 33.3333 19.403 33.3333 18.6667V1.33333C33.3333 0.596954 32.7364 0 32 0Z" fill="white"/>
<path d="M8.03833 20.0002H32C32.7367 20.0002 33.3333 19.4046 33.3333 18.6686V11.2329C33.3333 11.2329 24.4 17.2896 8.03833 20.0002Z" fill="#E6772F"/>
<path fill-rule="evenodd" clip-rule="evenodd" d="M6.09631 9.94061C5.84598 10.1546 5.52732 10.2483 5.01798 10.2483H4.80665V7.69495H5.01798C5.52732 7.69495 5.83365 7.78195 6.09631 8.00661C6.36698 8.23895 6.52965 8.59661 6.52965 8.96728C6.52965 9.33928 6.36698 9.71028 6.09631 9.94061ZM5.17565 7.04061H4.01898V10.9026H5.16898C5.78032 10.9026 6.22231 10.7633 6.60898 10.4559C7.06898 10.0916 7.34165 9.54195 7.34165 8.97261C7.34165 7.83261 6.45165 7.04061 5.17565 7.04061ZM7.70465 7.04061H8.48898V10.9026H7.70465V7.04061ZM10.4146 8.52095C9.94132 8.35461 9.80298 8.24428 9.80298 8.03528C9.80298 7.79261 10.0503 7.60861 10.3903 7.60861C10.626 7.60861 10.8203 7.69895 11.027 7.91961L11.4363 7.40561C11.1059 7.1249 10.6855 6.97261 10.252 6.97661C9.53765 6.97661 8.99331 7.45195 8.99331 8.08061C8.99331 8.61428 9.24631 8.88528 9.98465 9.14228C10.2936 9.24495 10.4503 9.31528 10.5296 9.36261C10.687 9.45995 10.7653 9.59928 10.7653 9.76061C10.7653 10.0749 10.5053 10.3056 10.1536 10.3056C9.77931 10.3056 9.47665 10.1263 9.29531 9.78961L8.78798 10.2596C9.15065 10.7683 9.58532 10.9956 10.1846 10.9956C11.0013 10.9956 11.577 10.4723 11.577 9.72695C11.577 9.11261 11.3103 8.83395 10.4146 8.52095ZM11.8243 8.97261C11.8243 10.1083 12.756 10.9883 13.955 10.9883C14.2933 10.9883 14.583 10.9243 14.94 10.7633V9.87561C14.6246 10.1789 14.3476 10.2989 13.9896 10.2989C13.1973 10.2989 12.636 9.74995 12.636 8.96728C12.636 8.22728 13.2153 7.64161 13.955 7.64161C14.3283 7.64161 14.6136 7.76828 14.94 8.07595V7.18928C14.5953 7.02261 14.3123 6.95361 13.9713 6.95361C12.779 6.95361 11.8243 7.85061 11.8243 8.97261ZM21.3163 9.63328L20.24 7.04061H19.382L21.0926 10.9999H21.5146L23.2586 7.04061H22.4073L21.3163 9.63328ZM23.6156 10.9026H25.8476V10.2483H24.4033V9.20561H25.7926V8.55161H24.4033V7.69495H25.8476V7.04061H23.6156V10.9026ZM27.3846 8.81661H27.1563V7.64861H27.3976C27.8893 7.64861 28.1526 7.84595 28.1526 8.22195C28.1526 8.60861 27.8893 8.81661 27.3846 8.81661ZM28.963 8.17995C28.963 7.45695 28.4446 7.04061 27.5363 7.04061H26.3673V10.9026H27.1563V9.34995H27.2586L28.346 10.9026H29.314L28.0443 9.27495C28.6376 9.15895 28.963 8.77061 28.963 8.17995Z" fill="#1A1919"/>
<path fill-rule="evenodd" clip-rule="evenodd" d="M19.493 8.98159C19.493 10.0933 18.5516 10.9946 17.3893 10.9946C16.227 10.9946 15.2856 10.0933 15.2856 8.98159C15.2856 7.86959 16.227 6.96826 17.389 6.96826C18.5516 6.96826 19.493 7.86959 19.493 8.98159Z" fill="#E6772F"/>
</g>
<defs>
<clipPath id="clip0_1240_2306">
<rect width="33.3333" height="20" fill="white"/>
</clipPath>
</defs>
</svg>
