<svg width="20" height="20" viewBox="0 0 20 20" fill="none" xmlns="http://www.w3.org/2000/svg">
<g clip-path="url(#clip0_1240_2274)">
<mask id="mask0_1240_2274" style="mask-type:luminance" maskUnits="userSpaceOnUse" x="0" y="0" width="20" height="20">
<path d="M0 0H19.898V12.5269C19.9474 12.5937 19.9814 12.6686 20 12.7653V13.1534C19.9814 13.2506 19.9474 13.3352 19.898 13.4066V20H0V5V0Z" fill="url(#paint0_radial_1240_2274)"/>
</mask>
<g mask="url(#mask0_1240_2274)">
<path fill-rule="evenodd" clip-rule="evenodd" d="M20 0H0V20H20V0Z" fill="url(#paint1_radial_1240_2274)"/>
</g>
<path fill-rule="evenodd" clip-rule="evenodd" d="M1.79195 8.66859L1.40922 7.7393L1.02883 8.66859H1.79195ZM10.2134 8.29984C10.1377 8.34281 10.0468 8.3475 9.93727 8.3475H9.25836V7.82852H9.94625C10.0445 7.82852 10.1464 7.83219 10.2127 7.8682C10.284 7.90383 10.3293 7.97609 10.3293 8.07539C10.3293 8.17828 10.2853 8.25852 10.2134 8.29984ZM15.0529 8.66859L14.6679 7.7393L14.2852 8.66859H15.0529ZM6.03164 9.67641H5.45906L5.4557 7.84891L4.64672 9.67641H4.15641L3.34312 7.84484V9.67641H2.20687L1.99305 9.15555H0.829687L0.613828 9.67641H0.00664063L1.00555 7.33992H1.83656L2.78617 9.55352V7.33992H3.69914L4.42922 8.92633L5.10133 7.33992H6.03164V9.67641ZM8.31289 9.67641H6.44687V7.33992H8.31273V7.82852H7.00688V8.24789H8.28086V8.7282L7.00688 8.72617V9.19281H8.31281L8.31289 9.67641ZM10.9445 7.97109C10.9445 8.34047 10.696 8.5357 10.5521 8.59328C10.674 8.64023 10.7776 8.72086 10.8262 8.79078C10.9051 8.90469 10.9208 9.01133 10.9208 9.2168V9.67641H10.3573L10.3555 9.38266C10.3555 9.24375 10.3688 9.04125 10.2649 8.92937C10.1834 8.84578 10.0605 8.82844 9.85867 8.82844H9.25844V9.67641H8.70023V7.33992H9.98617C10.27 7.33992 10.4812 7.3493 10.6623 7.4532C10.8392 7.55641 10.9445 7.70922 10.9445 7.97109ZM11.2692 9.67641H11.8391V7.33961H11.2692V9.67641ZM18.4505 9.67641H17.6582L16.5991 7.92445L16.601 9.67641H15.4633L15.2454 9.15555H14.0837L13.8748 9.67641H13.2209C12.9485 9.67641 12.6041 9.61586 12.4113 9.41898C12.2128 9.21945 12.1125 8.95203 12.1125 8.52602C12.1125 8.17961 12.1734 7.8632 12.4133 7.61305C12.5941 7.42656 12.8762 7.33992 13.2616 7.33992H13.8015V7.84023H13.2736C13.0695 7.84023 12.9533 7.87148 12.842 7.97977C12.748 8.07836 12.6814 8.26414 12.6814 8.50969C12.6814 8.76047 12.7314 8.93898 12.8366 9.05859C12.9205 9.15016 13.0774 9.17781 13.225 9.17781H13.4762L14.2632 7.33992H15.0999L16.0461 9.55023V7.33984H16.8978L17.8794 8.96695V7.33984H18.4505V9.67641ZM0 10.1367H0.954609L1.16977 9.61586H1.65141L1.86586 10.1367H3.74438V9.73906L3.91234 10.138H4.88578L5.05305 9.73406V10.1367H9.7207L9.71836 9.28437H9.80867C9.87227 9.2857 9.89125 9.29305 9.89125 9.39797V10.1367H12.3038V9.93859C12.4986 10.0431 12.802 10.1367 13.1991 10.1367H14.2152L14.432 9.61586H14.9144L15.1292 10.1367H17.0843V9.64281L17.3811 10.1367H18.9469V6.87695H17.3967V7.26297L17.1803 6.87703H15.5867V7.26297L15.3875 6.87703H13.2367C12.8763 6.87703 12.5589 6.92656 12.3038 7.06711V6.87695H10.8213V7.06711C10.6565 6.92258 10.4349 6.87695 10.1895 6.87695H4.76664L4.40125 7.71992L4.02953 6.87695H2.32187V7.26297L2.13234 6.87703H0.676094L0 8.42539V10.1367ZM19.8988 11.8609H18.879C18.7774 11.8609 18.7098 11.8649 18.6552 11.9026C18.5966 11.9398 18.5719 11.9982 18.5719 12.0724C18.5719 12.1591 18.6219 12.219 18.6961 12.245C18.7521 12.2656 18.817 12.2709 18.9123 12.2723L19.2114 12.2799C19.5165 12.2886 19.722 12.3405 19.8469 12.4674C19.8679 12.4862 19.8828 12.5084 19.8988 12.5264V11.8609ZM19.8988 13.402C19.7616 13.6013 19.4975 13.7015 19.1391 13.7015H18.0599V13.1992H19.1358C19.2407 13.1992 19.316 13.1849 19.3623 13.1412C19.3998 13.107 19.4286 13.054 19.4286 12.9897C19.4286 12.9208 19.3999 12.8662 19.3609 12.8348C19.3173 12.7979 19.2597 12.7829 19.1631 12.7816C18.6389 12.7652 17.9844 12.7979 17.9844 12.0588C17.9844 11.7201 18.2005 11.3634 18.7848 11.3634H19.8988V10.8984H18.8641C18.5516 10.8984 18.3255 10.9723 18.164 11.0902V10.8984H16.6341C16.392 10.8984 16.1052 10.9593 15.9673 11.0902L15.9694 10.8984H13.2378V11.0902C13.0203 10.9334 12.6546 10.8984 12.4831 10.8984H10.6841V11.0902C10.5113 10.923 10.1309 10.8984 9.89672 10.8984H7.88031L7.41969 11.3993L6.98766 10.8984H3.97563V14.1601H6.93133L7.40695 13.6532L7.85492 14.1602L9.67414 14.1615V13.3944H9.85438C10.0945 13.3977 10.3816 13.3891 10.6327 13.2805V14.1602H12.1346V13.3098H12.2069C12.2995 13.3098 12.3088 13.3152 12.3088 13.4067V14.1602H16.8726C17.1603 14.1602 17.4627 14.0859 17.632 13.9527V14.1602H19.0798C19.3813 14.1602 19.6741 14.1185 19.8988 14.0109V13.402ZM17.6696 12.4675C17.7788 12.5808 17.8368 12.7236 17.8368 12.963C17.8368 13.4673 17.522 13.7015 16.9598 13.7015H15.8703V13.1992H16.9548C17.0621 13.1992 17.1363 13.1849 17.185 13.1412C17.2056 13.1218 17.2219 13.0983 17.233 13.0722C17.2441 13.0461 17.2496 13.018 17.2493 12.9897C17.2493 12.9208 17.2193 12.8662 17.181 12.8348C17.138 12.7979 17.0797 12.7829 16.9828 12.7816C16.4589 12.7652 15.8064 12.7979 15.8064 12.0588C15.8064 11.7201 16.0192 11.3634 16.6027 11.3634H17.7242V11.8609H16.701C16.5981 11.8609 16.5312 11.8649 16.4752 11.9026C16.4146 11.9398 16.392 11.9982 16.392 12.0724C16.392 12.1591 16.4439 12.219 16.5148 12.245C16.5721 12.2656 16.6341 12.2709 16.7303 12.2723L17.0314 12.2799C17.3366 12.2886 17.5427 12.3405 17.6696 12.4674V12.4675ZM12.6285 12.3242C12.5552 12.3672 12.4616 12.3716 12.3541 12.3716H11.6749V11.848H12.363C12.4616 11.848 12.5629 11.8499 12.6285 11.8883C12.7012 11.9276 12.7445 11.9995 12.7445 12.1004C12.7445 12.1994 12.7012 12.2799 12.6285 12.3242ZM12.9663 12.615C13.0905 12.66 13.192 12.7426 13.2397 12.8109C13.3184 12.9255 13.3313 13.032 13.332 13.2375V13.7016H12.7724V13.4094C12.7724 13.2675 12.7861 13.06 12.6815 12.9521C12.6009 12.8662 12.476 12.8472 12.2728 12.8472H11.6749V13.7015H11.1144V11.3634H12.403C12.6868 11.3634 12.893 11.375 13.0759 11.4739C13.252 11.5795 13.3613 11.7277 13.3613 11.9938C13.3613 12.3652 13.1135 12.5557 12.9663 12.615ZM13.672 11.3634H15.5373V11.848H14.2287V12.2709H15.5046V12.7483H14.2286V13.2129L15.5373 13.2155V13.7015H13.672V11.3634ZM9.9043 12.4415H9.18086V11.848H9.91031C10.1119 11.848 10.2514 11.9282 10.2514 12.1344C10.2514 12.3359 10.1185 12.4415 9.9043 12.4415ZM8.62461 13.4893L7.76875 12.5371L8.62477 11.6145L8.62461 13.4893ZM6.41039 13.2129H5.03711V12.7483H6.26328V12.2709H5.03711V11.848H6.43734L7.04727 12.5277L6.41039 13.2129ZM10.8506 12.1344C10.8506 12.7816 10.3677 12.9168 9.87797 12.9168H9.18086V13.7015H8.09672L7.40859 12.928L6.69383 13.7015H4.48188V11.3634H6.72813L7.41531 12.1291L8.12539 11.3634H9.91031C10.354 11.3634 10.8506 11.4855 10.8506 12.1344Z" fill="white"/>
<path fill-rule="evenodd" clip-rule="evenodd" d="M10.9444 7.97133C10.9444 8.34109 10.6963 8.53563 10.5527 8.5932C10.6746 8.64016 10.7782 8.72141 10.8268 8.7907C10.9057 8.90531 10.9211 9.01125 10.9211 9.21742V9.67633H10.3579L10.3555 9.38289C10.3555 9.24367 10.3696 9.04117 10.2653 8.9293C10.1833 8.8457 10.0611 8.82836 9.85863 8.82836H9.2591V9.67633H8.7002V7.33984H9.98684C10.27 7.33984 10.4814 7.34922 10.6623 7.45313C10.8398 7.55633 10.9444 7.70922 10.9444 7.97133Z" fill="#2F9BCA"/>
<path fill-rule="evenodd" clip-rule="evenodd" d="M8.31354 9.67664H6.4469V7.33984H8.31346V7.82875H7.0069V8.24813H8.28088V8.72844L7.0069 8.72711V9.19375H8.31354" fill="#2EA3D0"/>
<path fill-rule="evenodd" clip-rule="evenodd" d="M6.03169 9.67623H5.45911L5.45575 7.84873L4.64739 9.67623H4.15716L3.3431 7.84537V9.67623H2.20731L1.99317 9.15568H0.829736L0.61458 9.67623H0.00708008L1.00591 7.33943H1.83661L2.78622 9.55373V7.33943H3.6995L4.42997 8.92686L5.10138 7.33936H6.03169" fill="#55B2D8"/>
<path fill-rule="evenodd" clip-rule="evenodd" d="M10.214 8.2998C10.138 8.34348 10.0472 8.34746 9.93826 8.34746H9.25904V7.82848H9.94686C10.0451 7.82848 10.1467 7.83215 10.2126 7.86879C10.2846 7.90379 10.3296 7.97605 10.3296 8.07566C10.3296 8.17824 10.2859 8.25918 10.214 8.29988M1.79225 8.66855L1.4092 7.73926L1.02881 8.66855" fill="white"/>
</g>
<defs>
<radialGradient id="paint0_radial_1240_2274" cx="0" cy="0" r="1" gradientUnits="userSpaceOnUse" gradientTransform="translate(3.3218 3.47437) scale(23.7041)">
<stop stop-color="#88CDE7"/>
<stop offset="1" stop-color="#2274AD"/>
</radialGradient>
<radialGradient id="paint1_radial_1240_2274" cx="0" cy="0" r="1" gradientUnits="userSpaceOnUse" gradientTransform="translate(3.3218 3.47437) scale(23.7041)">
<stop stop-color="#88CDE7"/>
<stop offset="1" stop-color="#2274AD"/>
</radialGradient>
<clipPath id="clip0_1240_2274">
<rect width="20" height="20" fill="white"/>
</clipPath>
</defs>
</svg>
