<svg width="26" height="20" viewBox="0 0 26 20" fill="none" xmlns="http://www.w3.org/2000/svg">
<g clip-path="url(#clip0_1240_2262)">
<path d="M25.2003 19.7287V19.7801H25.2483C25.2573 19.7802 25.2662 19.778 25.274 19.7735C25.2771 19.7713 25.2796 19.7684 25.2813 19.7649C25.283 19.7615 25.2838 19.7577 25.2836 19.7539C25.2838 19.7501 25.283 19.7464 25.2813 19.743C25.2796 19.7397 25.2771 19.7368 25.274 19.7347C25.2662 19.7301 25.2573 19.7278 25.2483 19.7282H25.2003V19.7287ZM25.2488 19.6923C25.2693 19.691 25.2897 19.697 25.3064 19.709C25.3131 19.7145 25.3184 19.7215 25.3219 19.7294C25.3254 19.7373 25.327 19.7459 25.3266 19.7545C25.3269 19.762 25.3256 19.7694 25.3228 19.7763C25.32 19.7832 25.3158 19.7894 25.3104 19.7945C25.2975 19.8057 25.2814 19.8124 25.2643 19.8136L25.3286 19.8869H25.2791L25.22 19.8142H25.2009V19.8869H25.1595V19.6924H25.2494L25.2488 19.6923ZM25.2359 19.954C25.2576 19.9542 25.2792 19.9498 25.299 19.9412C25.3182 19.9329 25.3357 19.9211 25.3505 19.9063C25.3653 19.8916 25.3771 19.8741 25.3853 19.8549C25.4022 19.8142 25.4022 19.7684 25.3853 19.7277C25.377 19.7085 25.3652 19.6911 25.3505 19.6762C25.3357 19.6615 25.3182 19.6497 25.299 19.6414C25.279 19.6332 25.2576 19.6291 25.2359 19.6293C25.2139 19.6291 25.1921 19.6332 25.1717 19.6414C25.1521 19.6495 25.1342 19.6613 25.1191 19.6762C25.0964 19.6996 25.081 19.7291 25.0749 19.7611C25.0688 19.7931 25.0722 19.8261 25.0848 19.8562C25.0926 19.8755 25.1043 19.893 25.1191 19.9076C25.1342 19.9225 25.1521 19.9343 25.1717 19.9424C25.192 19.9511 25.2139 19.9555 25.2359 19.9553M25.2359 19.5825C25.2924 19.5825 25.3467 19.6046 25.387 19.6442C25.4064 19.6632 25.4219 19.6859 25.4325 19.7109C25.4435 19.7366 25.4491 19.7643 25.4491 19.7922C25.4491 19.8202 25.4435 19.8478 25.4325 19.8735C25.4216 19.8984 25.4062 19.9211 25.387 19.9403C25.3672 19.9592 25.3443 19.9744 25.3192 19.9852C25.2929 19.9964 25.2646 20.0021 25.2359 20.002C25.207 20.0022 25.1783 19.9965 25.1516 19.9852C25.1263 19.9746 25.1031 19.9594 25.0834 19.9403C25.0642 19.9204 25.0489 19.897 25.0385 19.8714C25.0275 19.8457 25.0219 19.818 25.0219 19.7901C25.0219 19.7621 25.0275 19.7345 25.0385 19.7088C25.0491 19.6837 25.0646 19.6611 25.084 19.6421C25.1035 19.6226 25.1267 19.6073 25.1523 19.5971C25.1789 19.5858 25.2076 19.5801 25.2366 19.5804M5.55471 18.8315C5.55471 18.4607 5.79764 18.1561 6.19468 18.1561C6.57411 18.1561 6.83016 18.4476 6.83016 18.8315C6.83016 19.2154 6.57411 19.507 6.19468 19.507C5.79764 19.507 5.55471 19.2023 5.55471 18.8315ZM7.26267 18.8315V17.7762H6.80393V18.0333C6.65843 17.8433 6.43774 17.7242 6.13761 17.7242C5.54635 17.7242 5.08234 18.1879 5.08234 18.832C5.08234 19.4761 5.54609 19.9399 6.13761 19.9399C6.43761 19.9399 6.65843 19.8206 6.80393 19.6307V19.8869H7.26216V18.8315H7.26267ZM22.7629 18.8315C22.7629 18.4607 23.0059 18.1561 23.403 18.1561C23.7829 18.1561 24.0385 18.4476 24.0385 18.8315C24.0385 19.2154 23.7829 19.507 23.403 19.507C23.006 19.507 22.7629 19.2023 22.7629 18.8315ZM24.4714 18.8315V16.9292H24.0123V18.0333C23.8668 17.8433 23.6461 17.7242 23.346 17.7242C22.7547 17.7242 22.2907 18.1879 22.2907 18.832C22.2907 19.4761 22.7544 19.9399 23.346 19.9399C23.6461 19.9399 23.8668 19.8206 24.0123 19.6307V19.8869H24.4714V18.8315ZM12.9562 18.1343C13.2519 18.1343 13.4417 18.3197 13.4902 18.646H12.3956C12.4446 18.3414 12.6295 18.1343 12.9564 18.1343M12.9655 17.723C12.3472 17.723 11.9147 18.1729 11.9147 18.8309C11.9147 19.5017 12.3646 19.9387 12.9962 19.9387C13.314 19.9387 13.605 19.8594 13.861 19.6431L13.6362 19.3031C13.4593 19.4445 13.2341 19.5238 13.0224 19.5238C12.7268 19.5238 12.4577 19.3869 12.3915 19.0071H13.9579C13.9624 18.95 13.967 18.8924 13.967 18.8307C13.9624 18.173 13.5557 17.7229 12.9652 17.7229M18.5038 18.8307C18.5038 18.4599 18.7467 18.1553 19.1438 18.1553C19.5232 18.1553 19.7793 18.4468 19.7793 18.8307C19.7793 19.2147 19.5232 19.5062 19.1438 19.5062C18.7467 19.5062 18.5037 19.2016 18.5037 18.8307M20.2116 18.8307V17.7762H19.7532V18.0333C19.6071 17.8433 19.387 17.7242 19.0868 17.7242C18.4956 17.7242 18.0316 18.1879 18.0316 18.832C18.0316 19.4761 18.4953 19.9399 19.0868 19.9399C19.387 19.9399 19.6071 19.8206 19.7532 19.6307V19.8869H20.2118V18.8315L20.2116 18.8307ZM15.9132 18.8307C15.9132 19.4707 16.3587 19.9386 17.0386 19.9386C17.3564 19.9386 17.5681 19.8679 17.797 19.687L17.5767 19.3162C17.4044 19.44 17.2236 19.5062 17.024 19.5062C16.6578 19.5017 16.3885 19.2369 16.3885 18.8307C16.3885 18.4246 16.6578 18.1599 17.024 18.1553C17.2231 18.1553 17.4039 18.2215 17.5767 18.3453L17.797 17.9744C17.5677 17.7936 17.356 17.7229 17.0386 17.7229C16.3587 17.7229 15.9132 18.1906 15.9132 18.8307ZM21.8271 17.7229C21.5624 17.7229 21.3901 17.8467 21.2709 18.032V17.7762H20.8163V19.8858H21.2755V18.7032C21.2755 18.3541 21.4255 18.1602 21.7254 18.1602C21.8236 18.1588 21.9211 18.1768 22.0123 18.2133L22.1537 17.7809C22.0521 17.7409 21.9197 17.7233 21.8268 17.7233M9.53067 17.944C9.30998 17.7985 9.00586 17.7233 8.67039 17.7233C8.13594 17.7233 7.79185 17.9795 7.79185 18.3986C7.79185 18.7426 8.04802 18.9548 8.51974 19.021L8.73645 19.0518C8.988 19.0872 9.10676 19.1534 9.10676 19.2725C9.10676 19.4356 8.93967 19.5287 8.62591 19.5287C8.30818 19.5287 8.07887 19.4271 7.92424 19.308L7.70869 19.6657C7.96023 19.8511 8.27797 19.9395 8.62206 19.9395C9.23131 19.9395 9.5844 19.6526 9.5844 19.2509C9.5844 18.8801 9.3065 18.6861 8.84738 18.6199L8.63118 18.5886C8.4326 18.5629 8.27347 18.5229 8.27347 18.3815C8.27347 18.2273 8.42347 18.1345 8.67514 18.1345C8.94442 18.1345 9.20509 18.236 9.33285 18.3153L9.53144 17.9445L9.53067 17.944ZM15.4498 17.7237C15.1852 17.7237 15.0128 17.8475 14.8942 18.0328V17.7762H14.4395V19.8858H14.8983V18.7032C14.8983 18.3541 15.0483 18.1602 15.3482 18.1602C15.4463 18.1588 15.5439 18.1768 15.635 18.2133L15.7764 17.7809C15.6749 17.7409 15.5425 17.7233 15.4496 17.7233M11.5352 17.7762H10.785V17.1363H10.3213V17.7762H9.89339V18.1955H10.3213V19.1579C10.3213 19.6473 10.5113 19.9388 11.0539 19.9388C11.253 19.9388 11.4823 19.8771 11.6278 19.7757L11.4953 19.3829C11.3584 19.4622 11.2084 19.5022 11.0892 19.5022C10.8598 19.5022 10.785 19.3608 10.785 19.1491V18.1959H11.5352V17.7762ZM4.67668 19.8863V18.5624C4.67668 18.0638 4.35895 17.7283 3.84674 17.7238C3.57746 17.7193 3.29969 17.8031 3.10522 18.0991C2.95972 17.8652 2.73041 17.7238 2.40805 17.7238C2.18273 17.7238 1.96255 17.79 1.79018 18.037V17.7762H1.33105V19.8858H1.79378V18.7161C1.79378 18.3499 1.99686 18.1553 2.31049 18.1553C2.61512 18.1553 2.76923 18.3539 2.76923 18.7115V19.8855H3.23298V18.7158C3.23298 18.3496 3.44468 18.155 3.74918 18.155C4.06242 18.155 4.2119 18.3536 4.2119 18.7112V19.8852L4.67668 19.8863Z" fill="#231F20"/>
<path d="M25.4619 12.869V12.5605H25.3816L25.2886 12.7722L25.1962 12.5605H25.1156V12.869H25.1727V12.6366L25.2596 12.8372H25.3187L25.4056 12.6361V12.869H25.4622H25.4619ZM24.9523 12.869V12.6134H25.0551V12.5613H24.7924V12.6134H24.8952V12.869H24.9517H24.9523Z" fill="#F79410"/>
<path d="M16.3312 14.1923H9.37927V1.69873H16.3313L16.3312 14.1923Z" fill="#FF5F00"/>
<path d="M9.82005 7.94564C9.82005 5.41132 11.0067 3.15374 12.8545 1.69885C11.4558 0.595956 9.72582 -0.00262323 7.9446 8.64199e-06C3.55681 8.64199e-06 0 3.55733 0 7.94564C0 12.3339 3.55681 15.8913 7.9446 15.8913C9.72586 15.8939 11.4559 15.2953 12.8546 14.1924C11.0069 12.7378 9.82005 10.4801 9.82005 7.94564Z" fill="#EB001B"/>
<path d="M25.7101 7.94564C25.7101 12.3339 22.1533 15.8913 17.7655 15.8913C15.9841 15.8939 14.2539 15.2953 12.8549 14.1924C14.7032 12.7375 15.8898 10.4801 15.8898 7.94564C15.8898 5.41119 14.7032 3.15374 12.8549 1.69885C14.2538 0.595989 15.984 -0.0025771 17.7654 8.34056e-06C22.1532 8.34056e-06 25.71 3.55733 25.71 7.94564" fill="#F79E1B"/>
</g>
<defs>
<clipPath id="clip0_1240_2262">
<rect width="25.7069" height="20" fill="white"/>
</clipPath>
</defs>
</svg>
