<svg width="29" height="20" viewBox="0 0 29 20" fill="none" xmlns="http://www.w3.org/2000/svg">
<g clip-path="url(#clip0_1240_2319)">
<path d="M2.55952 0.854926C2.37936 0.855146 2.1992 0.856337 2.01905 0.858497C1.84048 0.86445 1.65833 0.873974 1.48095 0.906116C1.21288 0.94848 0.958697 1.05389 0.739315 1.21366C0.519932 1.37344 0.34162 1.58302 0.219048 1.82516C0.135714 1.98945 0.0833333 2.15612 0.052381 2.33707C0.0190476 2.51326 0.00833333 2.69421 0.0047619 2.87278C0.00232477 2.9557 0.000737389 3.03864 0 3.12159L0 16.8799C0 16.9633 0.00238095 17.0442 0.00357143 17.1264C0.00833333 17.3049 0.0190476 17.4871 0.0511905 17.6644C0.0833333 17.843 0.136905 18.0109 0.220238 18.1752C0.384398 18.4984 0.647044 18.761 0.970238 18.9252C1.13452 19.0085 1.30119 19.0621 1.48214 19.0942C1.65833 19.1264 1.83929 19.1371 2.01786 19.1418L2.26548 19.1454H26.306L26.5524 19.1418C26.731 19.1371 26.9131 19.1264 27.0905 19.0942C27.269 19.0621 27.4369 19.0097 27.6 18.9264C27.924 18.7624 28.1872 18.4992 28.3512 18.1752C28.4345 18.0109 28.4881 17.8442 28.519 17.6633C28.5512 17.4871 28.5619 17.3061 28.5667 17.1275C28.569 17.0442 28.5702 16.9633 28.5702 16.8799L28.5714 16.5871V3.1204C28.5714 3.03707 28.569 2.95612 28.5667 2.87397C28.5644 2.69366 28.5485 2.51378 28.519 2.33588C28.4621 1.97738 28.2933 1.64605 28.0367 1.38927C27.7801 1.13248 27.4489 0.963375 27.0905 0.906116C26.9126 0.876781 26.7327 0.860863 26.5524 0.858497C26.3727 0.85341 26.1929 0.852219 26.0131 0.854926H2.55952ZM2.55952 1.46445H26.3C26.3786 1.46445 26.456 1.46683 26.5345 1.46802C26.6714 1.47278 26.8321 1.47993 26.981 1.50612C27.1107 1.52993 27.219 1.56564 27.3226 1.61802C27.5314 1.72403 27.7011 1.89372 27.8071 2.10255C27.8617 2.21046 27.8994 2.32608 27.919 2.4454C27.9452 2.59183 27.9524 2.75254 27.956 2.89064C27.9583 2.96802 27.9595 3.0454 27.9595 3.12516V16.8775C27.9595 16.9549 27.9595 17.0323 27.956 17.1109C27.9524 17.2478 27.9452 17.4085 27.9179 17.5573C27.8921 17.7325 27.8246 17.8989 27.721 18.0425C27.6174 18.1861 27.4807 18.3026 27.3226 18.3823C27.2154 18.4365 27.1006 18.4743 26.9821 18.4942C26.8352 18.5176 26.6868 18.5303 26.5381 18.5323L26.3 18.5359H2.26905C2.19048 18.5359 2.11071 18.5335 2.03571 18.5323C1.88618 18.5304 1.73698 18.5176 1.58929 18.4942C1.45952 18.4704 1.35119 18.4347 1.24643 18.3823C1.0376 18.2767 0.868176 18.1069 0.763095 17.8978C0.708701 17.7898 0.670971 17.6742 0.65119 17.5549C0.627548 17.4081 0.614814 17.2596 0.613095 17.1109C0.611498 17.0327 0.610705 16.9545 0.610714 16.8764V3.12397C0.610714 3.04659 0.610714 2.96802 0.613095 2.88945C0.617857 2.75374 0.625 2.59421 0.65119 2.44302C0.675 2.31445 0.710714 2.20612 0.763095 2.10135C0.869169 1.89287 1.03888 1.72358 1.24762 1.61802C1.35539 1.56414 1.47052 1.52643 1.58929 1.50612C1.7381 1.47993 1.89881 1.47159 2.03571 1.46802C2.1131 1.46564 2.19167 1.46564 2.26905 1.46445H2.55952ZM8.16667 5.86921C7.80952 5.88826 7.37143 6.10612 7.11905 6.41207C6.89167 6.67397 6.69048 7.10255 6.74286 7.50493C7.14524 7.54064 7.54643 7.30374 7.8 7.00731C8.04405 6.70016 8.21071 6.28945 8.16667 5.8704V5.86921ZM10.794 6.36921V12.9085H11.8083V10.674H13.2131C14.4964 10.674 15.3976 9.79421 15.3976 8.51683C15.3976 7.24302 14.5143 6.36802 13.2452 6.36802L10.794 6.36921ZM11.8083 7.22516H12.9774C13.8571 7.22516 14.3595 7.69659 14.3595 8.52159C14.3595 9.3454 13.8571 9.82159 12.9738 9.82159H11.8083V7.22516ZM8.05357 7.58231C7.51786 7.59421 7.06548 7.91564 6.80357 7.91564C6.52381 7.91564 6.09762 7.60135 5.63571 7.60969C5.33525 7.61719 5.04198 7.70322 4.78509 7.85924C4.52819 8.01525 4.31663 8.23581 4.17143 8.49897C3.54405 9.57993 4.00595 11.1835 4.61667 12.0645C4.91309 12.5002 5.27024 12.9799 5.74048 12.9621C6.18452 12.9454 6.35952 12.674 6.89881 12.674C7.43929 12.674 7.59643 12.9621 8.06548 12.9537C8.55357 12.9454 8.85952 12.518 9.15476 12.0811C9.49524 11.5847 9.63452 11.1049 9.64286 11.0799C9.63452 11.0704 8.70238 10.7133 8.69405 9.64064C8.68452 8.74302 9.42619 8.31564 9.46071 8.28945C9.04167 7.6704 8.38929 7.60135 8.1631 7.5835C8.12663 7.58121 8.0901 7.5816 8.05357 7.58231ZM17.8202 8.05493C16.6417 8.05493 15.9083 8.68945 15.8536 9.55016H16.7786C16.8643 9.12397 17.2179 8.85255 17.7845 8.85255C18.3821 8.85255 18.7405 9.16921 18.7405 9.69897V10.0668L17.4345 10.143C16.3024 10.2073 15.6631 10.7192 15.6631 11.5525C15.6631 12.4097 16.3155 12.9894 17.2488 12.9894C17.875 12.9894 18.4774 12.6549 18.7536 12.124H18.7762V12.9085H19.7143V9.62278C19.7143 8.66683 18.9762 8.05493 17.8202 8.05493ZM20.1298 8.14064L21.8512 12.9133C21.8512 12.9168 21.7643 13.199 21.7643 13.2073C21.6155 13.6954 21.3714 13.8871 20.9179 13.8871C20.8357 13.8871 20.6726 13.8871 20.6 13.8692V14.6621C20.6714 14.6752 20.9179 14.6847 20.9988 14.6847C21.9869 14.6847 22.4583 14.3133 22.8655 13.1573L24.6512 8.14064H23.6179L22.4131 12.0204H22.3952L21.1893 8.13945L20.1298 8.14064ZM18.7405 10.7466V11.1228C18.7405 11.743 18.2048 12.2144 17.5214 12.2144C16.9952 12.2144 16.6512 11.943 16.6512 11.5252C16.6512 11.118 16.9821 10.8585 17.5667 10.8192L18.7405 10.7466Z" fill="black"/>
</g>
<defs>
<clipPath id="clip0_1240_2319">
<rect width="28.5714" height="20" fill="white"/>
</clipPath>
</defs>
</svg>
