<svg width="26" height="20" viewBox="0 0 26 20" fill="none" xmlns="http://www.w3.org/2000/svg">
<g clip-path="url(#clip0_1240_2268)">
<path d="M25.9296 15.932C25.9296 18.1574 24.1259 19.9619 21.8998 19.9619H0.0212402V4.03249C0.0212402 1.8065 1.82498 0.00195312 4.0514 0.00195312H25.9295L25.9294 15.9319L25.9296 15.932Z" fill="white"/>
<path d="M18.7969 10.3311C19.4219 10.3447 20.0503 10.3035 20.6727 10.3525C21.303 10.4701 21.455 11.4243 20.895 11.7368C20.5129 11.9427 20.059 11.8135 19.6447 11.8498H18.7969V10.3311ZM21.0341 8.61214C21.1729 9.10219 20.7005 9.54219 20.2285 9.47471H18.7969C18.807 9.01257 18.7773 8.51096 18.8115 8.07316C19.385 8.08931 19.9637 8.04022 20.5339 8.09883C20.7789 8.16038 20.9839 8.36177 21.0341 8.61214ZM24.4792 1.34476C24.5059 2.28064 24.4831 3.26599 24.4907 4.22086C24.489 8.103 24.4945 11.985 24.4877 15.8674C24.4626 17.3223 23.1731 18.5865 21.7283 18.6156C20.282 18.6214 18.8356 18.6165 17.3891 18.6181V12.7491C18.9651 12.741 20.5419 12.7656 22.1172 12.7368C22.848 12.6909 23.6485 12.2087 23.6825 11.4045C23.7685 10.5968 23.007 10.0381 22.2841 9.94989C22.0061 9.94267 22.0143 9.86888 22.2841 9.83669C22.9736 9.68765 23.5151 8.97396 23.3122 8.2592C23.1393 7.50743 22.3084 7.21647 21.6173 7.21792C20.2081 7.20834 18.7987 7.21658 17.3894 7.2138C17.3985 6.11813 17.3704 5.02128 17.4045 3.92642C17.5162 2.49776 18.8381 1.31957 20.2626 1.34513C21.6683 1.34492 23.0738 1.34492 24.4792 1.34487V1.34476Z" fill="url(#paint0_linear_1240_2268)"/>
<path d="M1.46436 4.07465C1.50035 2.62203 2.79527 1.36818 4.23827 1.34695C5.67918 1.34251 7.1203 1.34631 8.56121 1.34503C8.55725 6.20519 8.56902 11.0659 8.55527 15.9258C8.49976 17.3607 7.21896 18.5907 5.79169 18.6161C4.34805 18.6213 2.90426 18.6168 1.46057 18.6183V12.5514C2.86287 12.8827 4.3334 13.0237 5.76399 12.804C6.61912 12.6664 7.55474 12.2465 7.84426 11.3593C8.05731 10.6004 7.93736 9.80176 7.96907 9.02289V7.21406H5.49329C5.48217 8.41037 5.51607 9.60877 5.47538 10.8036C5.40864 11.5381 4.68132 12.0047 3.98864 11.9798C3.1296 11.9889 1.4273 11.3572 1.4273 11.3572C1.42303 9.11583 1.45222 6.30882 1.46436 4.07487V4.07465Z" fill="url(#paint1_linear_1240_2268)"/>
<path d="M9.48469 7.94344C9.35437 7.97109 9.45849 7.49954 9.42517 7.32066C9.43405 6.18964 9.40662 5.0574 9.44031 3.92718C9.55165 2.49248 10.8837 1.31135 12.314 1.34494H16.5262C16.5222 6.2051 16.5339 11.0658 16.5203 15.9257C16.4647 17.3607 15.1838 18.5906 13.7565 18.616C12.3128 18.6215 10.8689 18.6169 9.42512 18.6183V11.9712C10.4112 12.7802 11.7513 12.9062 12.9798 12.9084C13.9059 12.908 14.8266 12.7653 15.7259 12.5517V11.3339C14.7124 11.8391 13.5209 12.1599 12.3974 11.8697C11.6137 11.6746 11.0447 10.9172 11.0574 10.1084C10.9666 9.26724 11.4597 8.37922 12.2862 8.12916C13.3125 7.80788 14.431 8.0536 15.393 8.4713C15.5991 8.57922 15.8083 8.71307 15.7259 8.36857V7.41141C14.117 7.02863 12.4048 6.88777 10.7884 7.30419C10.3206 7.43617 9.86475 7.63633 9.48469 7.94355V7.94344Z" fill="url(#paint2_linear_1240_2268)"/>
</g>
<defs>
<linearGradient id="paint0_linear_1240_2268" x1="17.3406" y1="9.6121" x2="24.4459" y2="9.6121" gradientUnits="userSpaceOnUse">
<stop stop-color="#007B40"/>
<stop offset="1" stop-color="#55B330"/>
</linearGradient>
<linearGradient id="paint1_linear_1240_2268" x1="1.30949" y1="10.1471" x2="8.44479" y2="10.1471" gradientUnits="userSpaceOnUse">
<stop stop-color="#1D2970"/>
<stop offset="1" stop-color="#006DBA"/>
</linearGradient>
<linearGradient id="paint2_linear_1240_2268" x1="9.4147" y1="9.77961" x2="16.5249" y2="9.77961" gradientUnits="userSpaceOnUse">
<stop stop-color="#6E2B2F"/>
<stop offset="1" stop-color="#E30138"/>
</linearGradient>
<clipPath id="clip0_1240_2268">
<rect width="25.9358" height="20" fill="white"/>
</clipPath>
</defs>
</svg>
