<svg width="32" height="20" viewBox="0 0 32 20" fill="none" xmlns="http://www.w3.org/2000/svg">
<g clip-path="url(#clip0_1240_2312)">
<path d="M30.1486 0H1.69851C0.76045 0 0 0.76045 0 1.69851V18.3015C0 19.2395 0.76045 20 1.69851 20H30.1486C31.0867 20 31.8471 19.2395 31.8471 18.3015V1.69851C31.8471 0.76045 31.0867 0 30.1486 0Z" fill="#0079BE"/>
<path d="M24.8379 10.1038C24.8379 5.88236 21.3143 2.96442 17.4539 2.96582H14.1315C10.2248 2.96442 7.00916 5.88323 7.00916 10.1038C7.00916 13.965 10.2248 17.1374 14.1315 17.1188H17.4539C21.3143 17.1374 24.8379 13.9642 24.8379 10.1038Z" fill="white"/>
<path d="M14.152 3.56396C10.5822 3.56509 7.68944 6.46449 7.6886 10.0429C7.68944 13.6208 10.5822 16.5199 14.152 16.521C17.7227 16.5199 20.6161 13.6208 20.6166 10.0429C20.6161 6.46449 17.7227 3.56509 14.152 3.56396Z" fill="#0079BE"/>
<path d="M10.0665 10.0252C10.0699 8.27654 11.1598 6.78542 12.6967 6.19287V13.8566C11.1598 13.2644 10.0699 11.774 10.0665 10.0252ZM15.6292 13.8585V6.19287C17.1666 6.78398 18.2582 8.27595 18.261 10.0254C18.2582 11.7754 17.1666 13.2663 15.6292 13.8585Z" fill="white"/>
</g>
<defs>
<clipPath id="clip0_1240_2312">
<rect width="31.8471" height="20" fill="white"/>
</clipPath>
</defs>
</svg>
