<?xml version="1.0" standalone="no"?>
<!DOCTYPE svg PUBLIC "-//W3C//DTD SVG 20010904//EN"
 "http://www.w3.org/TR/2001/REC-SVG-20010904/DTD/svg10.dtd">
<svg version="1.0" xmlns="http://www.w3.org/2000/svg"
 width="600.000000pt" height="600.000000pt" viewBox="0 0 600.000000 600.000000"
 preserveAspectRatio="xMidYMid meet">
<metadata>
Created by potrace 1.14, written by Peter Selinger 2001-2017
</metadata>
<g transform="translate(0.000000,600.000000) scale(0.100000,-0.100000)"
fill="#000000" stroke="none">
<path d="M450 5984 c-211 -55 -387 -231 -435 -435 -13 -56 -15 -370 -15 -2549
0 -2755 -6 -2532 67 -2680 47 -96 150 -200 249 -252 139 -73 -73 -68 2684 -68
2755 0 2532 -6 2680 67 96 47 200 150 252 249 73 139 68 -73 68 2684 0 2755 6
2532 -67 2680 -69 142 -228 268 -384 305 -95 22 -5014 22 -5099 -1z m5110 -72
c175 -63 300 -189 353 -357 l22 -70 0 -2490 0 -2490 -23 -65 c-63 -175 -189
-300 -357 -353 l-70 -22 -2340 0 -2340 0 -65 23 c-175 63 -300 189 -353 357
l-22 70 0 2490 0 2490 23 65 c73 204 233 340 436 370 28 4 1091 7 2361 6
l2310 -1 65 -23z"/>
<path d="M1170 3030 l0 -1470 330 0 330 0 0 595 0 595 114 0 115 0 332 -582
c182 -321 337 -589 343 -596 9 -9 92 -12 373 -10 l361 3 -364 620 c-200 341
-364 622 -364 625 0 3 33 18 73 34 256 102 428 292 498 551 30 111 33 362 5
480 -83 358 -336 557 -779 615 -46 6 -344 10 -723 10 l-644 0 0 -1470z m1410
1386 c136 -24 223 -52 324 -104 246 -126 365 -342 366 -664 0 -245 -74 -435
-229 -581 -97 -91 -211 -154 -359 -198 -32 -9 -41 -16 -37 -28 5 -13 612
-1055 687 -1178 l20 -33 -199 0 -198 1 -340 594 -339 595 -258 0 -258 0 0
-595 0 -595 -175 0 -175 0 0 1406 0 1406 538 -5 c441 -4 554 -7 632 -21z"/>
<path d="M1760 3624 l0 -526 338 4 c306 4 344 7 417 26 281 76 410 239 409
517 0 61 -6 130 -13 155 -42 150 -136 248 -287 300 -117 41 -220 50 -551 50
l-313 0 0 -526z m546 441 c162 -28 283 -104 331 -207 69 -145 50 -371 -40
-496 -97 -136 -269 -192 -593 -192 l-174 0 0 455 0 455 194 0 c128 0 223 -5
282 -15z"/>
<path d="M4164 3795 c-376 -97 -653 -398 -750 -814 -31 -131 -43 -370 -25
-506 24 -187 94 -381 188 -522 129 -196 344 -347 582 -410 86 -23 119 -26 329
-31 256 -5 365 7 511 55 148 48 396 180 389 207 -2 6 -43 84 -92 173 l-88 161
-67 -43 -66 -43 -23 43 -24 42 -85 -53 c-157 -98 -316 -145 -421 -123 -252 52
-425 252 -476 552 l-7 37 695 0 c653 0 695 1 700 18 18 58 27 251 17 368 -35
407 -195 685 -476 825 -148 74 -234 89 -505 88 -193 0 -224 -2 -306 -24z m626
-66 c41 -11 113 -38 160 -61 68 -34 103 -60 176 -133 79 -78 98 -104 143 -195
30 -62 62 -146 77 -205 32 -130 49 -332 38 -450 l-9 -90 -704 -3 -704 -2 6
-73 c27 -302 215 -557 472 -637 96 -30 271 -38 380 -17 97 18 220 64 300 112
32 20 59 34 60 33 25 -33 115 -213 112 -221 -8 -21 -199 -115 -307 -151 -143
-47 -241 -60 -419 -53 -118 4 -163 10 -234 31 -381 113 -638 424 -696 840 -14
99 -14 313 0 412 35 250 150 477 329 647 182 173 401 254 650 240 52 -3 129
-14 170 -24z"/>
<path d="M4436 3469 c-124 -29 -261 -129 -339 -247 -69 -103 -90 -162 -133
-369 l-4 -23 566 0 567 0 -7 90 c-22 298 -152 488 -373 545 -63 16 -215 18
-277 4z m148 -93 c139 -63 223 -203 251 -423 l7 -53 -401 0 -401 0 6 28 c53
227 182 392 359 459 68 26 101 24 179 -11z"/>
</g>
</svg>
