<svg width="8" height="14" viewBox="0 0 8 14" fill="none" xmlns="http://www.w3.org/2000/svg">
<path d="M0.25 13.0667C0.0833333 12.9 0 12.7027 0 12.4747C0 12.2471 0.0833333 12.05 0.25 11.8834L5.13333 7.00002L0.233333 2.10002C0.0777777 1.94446 0 1.75002 0 1.51669C0 1.28335 0.0833333 1.08335 0.25 0.916687C0.416667 0.75002 0.614 0.666687 0.842 0.666687C1.06956 0.666687 1.26667 0.75002 1.43333 0.916687L7.03333 6.53335C7.1 6.60002 7.14733 6.67224 7.17533 6.75002C7.20289 6.8278 7.21667 6.91113 7.21667 7.00002C7.21667 7.08891 7.20289 7.17224 7.17533 7.25002C7.14733 7.3278 7.1 7.40002 7.03333 7.46669L1.41667 13.0834C1.26111 13.2389 1.06956 13.3167 0.842 13.3167C0.614 13.3167 0.416667 13.2334 0.25 13.0667Z" fill="black"/>
</svg>
