<svg width="8" height="13" viewBox="0 0 8 13" fill="none" xmlns="http://www.w3.org/2000/svg">
<path d="M5.8 12.5667L0.183333 6.96667C0.116666 6.9 0.0695554 6.82778 0.0419998 6.75C0.0139998 6.67222 0 6.58889 0 6.5C0 6.41111 0.0139998 6.32778 0.0419998 6.25C0.0695554 6.17222 0.116666 6.1 0.183333 6.03333L5.8 0.416668C5.95556 0.261112 6.15 0.183334 6.38333 0.183334C6.61667 0.183334 6.81667 0.266668 6.98333 0.433334C7.15 0.600001 7.23333 0.794445 7.23333 1.01667C7.23333 1.23889 7.15 1.43333 6.98333 1.6L2.08333 6.5L6.98333 11.4C7.13889 11.5556 7.21667 11.7471 7.21667 11.9747C7.21667 12.2027 7.13333 12.4 6.96667 12.5667C6.8 12.7333 6.60556 12.8167 6.38333 12.8167C6.16111 12.8167 5.96667 12.7333 5.8 12.5667Z" fill="black"/>
</svg>
