<svg width="50" height="50" viewBox="0 0 50 50" fill="none" xmlns="http://www.w3.org/2000/svg">
<path d="M36.4583 9.375C32.3958 9.375 28.0208 10.2083 25 12.5C21.9792 10.2083 17.6042 9.375 13.5417 9.375C10.5208 9.375 7.31251 9.83333 4.62501 11.0208C3.10418 11.7083 2.08334 13.1875 2.08334 14.875V38.375C2.08334 41.0833 4.62501 43.0833 7.25001 42.4167C9.29168 41.8958 11.4583 41.6667 13.5417 41.6667C16.7917 41.6667 20.25 42.2083 23.0417 43.5833C24.2917 44.2083 25.7083 44.2083 26.9375 43.5833C29.7292 42.1875 33.1875 41.6667 36.4375 41.6667C38.5208 41.6667 40.6875 41.8958 42.7292 42.4167C45.3542 43.1042 47.8958 41.1042 47.8958 38.375V14.875C47.8958 13.1875 46.875 11.7083 45.3542 11.0208C42.6875 9.83333 39.4792 9.375 36.4583 9.375ZM43.75 35.8958C43.75 37.2083 42.5417 38.1667 41.25 37.9375C39.6875 37.6458 38.0625 37.5208 36.4583 37.5208C32.9167 37.5208 27.8125 38.875 25 40.6458V16.6667C27.8125 14.8958 32.9167 13.5417 36.4583 13.5417C38.375 13.5417 40.2708 13.7292 42.0833 14.125C43.0417 14.3333 43.75 15.1875 43.75 16.1667V35.8958Z" fill="black"/>
<path d="M29.125 22.9376C28.4583 22.9376 27.8542 22.5209 27.6458 21.8543C27.375 21.0418 27.8333 20.1459 28.6458 19.8959C31.8542 18.8543 36 18.5209 39.8125 18.9584C40.6667 19.0626 41.2917 19.8334 41.1875 20.6876C41.0833 21.5418 40.3125 22.1668 39.4583 22.0626C36.0833 21.6668 32.3958 21.9793 29.6042 22.8751C29.4375 22.8959 29.2708 22.9376 29.125 22.9376ZM29.125 28.4793C28.4583 28.4793 27.8542 28.0626 27.6458 27.3959C27.375 26.5834 27.8333 25.6876 28.6458 25.4376C31.8333 24.3959 36 24.0626 39.8125 24.5001C40.6667 24.6043 41.2917 25.3751 41.1875 26.2293C41.0833 27.0834 40.3125 27.7084 39.4583 27.6043C36.0833 27.2084 32.3958 27.5209 29.6042 28.4168C29.4475 28.4567 29.2867 28.4777 29.125 28.4793ZM29.125 34.0209C28.4583 34.0209 27.8542 33.6043 27.6458 32.9376C27.375 32.1251 27.8333 31.2293 28.6458 30.9793C31.8333 29.9376 36 29.6043 39.8125 30.0418C40.6667 30.1459 41.2917 30.9168 41.1875 31.7709C41.0833 32.6251 40.3125 33.2293 39.4583 33.1459C36.0833 32.7501 32.3958 33.0626 29.6042 33.9584C29.4475 33.9984 29.2867 34.0193 29.125 34.0209Z" fill="black"/>
</svg>
