<svg width="50" height="50" viewBox="0 0 50 50" fill="none" xmlns="http://www.w3.org/2000/svg">
<path d="M43.75 20.8333H26.3542C25.496 18.3968 23.9028 16.2867 21.7945 14.7941C19.6861 13.3015 17.1665 12.4999 14.5833 12.5C7.6875 12.5 2.08333 18.1042 2.08333 25C2.08333 31.8958 7.6875 37.5 14.5833 37.5C17.1665 37.5001 19.6861 36.6985 21.7945 35.2059C23.9028 33.7133 25.496 31.6032 26.3542 29.1667H27.0833L31.25 33.3333L35.4167 29.1667L39.5833 33.3333L47.9167 24.9167L43.75 20.8333ZM14.5833 31.25C11.1458 31.25 8.33333 28.4375 8.33333 25C8.33333 21.5625 11.1458 18.75 14.5833 18.75C18.0208 18.75 20.8333 21.5625 20.8333 25C20.8333 28.4375 18.0208 31.25 14.5833 31.25Z" fill="black"/>
</svg>
