<svg width="50" height="50" viewBox="0 0 50 50" fill="none" xmlns="http://www.w3.org/2000/svg">
<path d="M8.33335 37.4999H25.2709L22.9167 39.8541V41.6666H8.33335C7.22828 41.6666 6.16848 41.2276 5.38708 40.4462C4.60567 39.6648 4.16669 38.605 4.16669 37.4999V12.4999C4.16669 10.1874 6.02085 8.33325 8.33335 8.33325H20.8334L25 12.4999H41.6667C42.7718 12.4999 43.8316 12.9389 44.613 13.7203C45.3944 14.5017 45.8334 15.5615 45.8334 16.6666V21.1458C45.2917 20.9583 44.7084 20.8333 44.1042 20.8333C43.2292 20.8333 42.4167 21.0624 41.6667 21.4583V16.6666H8.33335V37.4999ZM47.6042 28.0624L44.8542 25.3124C44.4375 24.8958 43.75 24.8958 43.3542 25.3124L41.3125 27.3541L45.5625 31.6041L47.6042 29.5624C48.0209 29.1666 48.0209 28.4791 47.6042 28.0624ZM27.0834 41.5832V45.8333H31.3334L44.1042 33.0833L39.8542 28.8124L27.0834 41.5832Z" fill="black"/>
</svg>
