<svg width="50" height="50" viewBox="0 0 50 50" fill="none" xmlns="http://www.w3.org/2000/svg">
<path d="M25 8.33325C27.2101 8.33325 29.3297 9.21123 30.8925 10.774C32.4553 12.3368 33.3333 14.4564 33.3333 16.6666C33.3333 18.8767 32.4553 20.9963 30.8925 22.5591C29.3297 24.1219 27.2101 24.9999 25 24.9999C22.7898 24.9999 20.6702 24.1219 19.1074 22.5591C17.5446 20.9963 16.6666 18.8767 16.6666 16.6666C16.6666 14.4564 17.5446 12.3368 19.1074 10.774C20.6702 9.21123 22.7898 8.33325 25 8.33325ZM25 29.1666C34.2083 29.1666 41.6666 32.8958 41.6666 37.4999V41.6666H8.33331V37.4999C8.33331 32.8958 15.7916 29.1666 25 29.1666Z" fill="black"/>
</svg>
