<svg width="50" height="50" viewBox="0 0 50 50" fill="none" xmlns="http://www.w3.org/2000/svg">
<path d="M0 12.5C0 10.8424 0.65848 9.25268 1.83058 8.08058C3.00269 6.90848 4.5924 6.25 6.25 6.25H43.75C45.4076 6.25 46.9973 6.90848 48.1694 8.08058C49.3415 9.25268 50 10.8424 50 12.5V37.5C50 39.1576 49.3415 40.7473 48.1694 41.9194C46.9973 43.0915 45.4076 43.75 43.75 43.75H6.25C4.5924 43.75 3.00269 43.0915 1.83058 41.9194C0.65848 40.7473 0 39.1576 0 37.5V12.5ZM7.8125 15.625C7.3981 15.625 7.00067 15.7896 6.70765 16.0826C6.41462 16.3757 6.25 16.7731 6.25 17.1875V20.3125C6.25 20.7269 6.41462 21.1243 6.70765 21.4174C7.00067 21.7104 7.3981 21.875 7.8125 21.875H14.0625C14.4769 21.875 14.8743 21.7104 15.1674 21.4174C15.4604 21.1243 15.625 20.7269 15.625 20.3125V17.1875C15.625 16.7731 15.4604 16.3757 15.1674 16.0826C14.8743 15.7896 14.4769 15.625 14.0625 15.625H7.8125ZM7.8125 25C7.3981 25 7.00067 25.1646 6.70765 25.4576C6.41462 25.7507 6.25 26.1481 6.25 26.5625C6.25 26.9769 6.41462 27.3743 6.70765 27.6674C7.00067 27.9604 7.3981 28.125 7.8125 28.125H23.4375C23.8519 28.125 24.2493 27.9604 24.5424 27.6674C24.8354 27.3743 25 26.9769 25 26.5625C25 26.1481 24.8354 25.7507 24.5424 25.4576C24.2493 25.1646 23.8519 25 23.4375 25H7.8125ZM7.8125 31.25C7.3981 31.25 7.00067 31.4146 6.70765 31.7076C6.41462 32.0007 6.25 32.3981 6.25 32.8125C6.25 33.2269 6.41462 33.6243 6.70765 33.9174C7.00067 34.2104 7.3981 34.375 7.8125 34.375H10.9375C11.3519 34.375 11.7493 34.2104 12.0424 33.9174C12.3354 33.6243 12.5 33.2269 12.5 32.8125C12.5 32.3981 12.3354 32.0007 12.0424 31.7076C11.7493 31.4146 11.3519 31.25 10.9375 31.25H7.8125ZM17.1875 31.25C16.7731 31.25 16.3757 31.4146 16.0826 31.7076C15.7896 32.0007 15.625 32.3981 15.625 32.8125C15.625 33.2269 15.7896 33.6243 16.0826 33.9174C16.3757 34.2104 16.7731 34.375 17.1875 34.375H20.3125C20.7269 34.375 21.1243 34.2104 21.4174 33.9174C21.7104 33.6243 21.875 33.2269 21.875 32.8125C21.875 32.3981 21.7104 32.0007 21.4174 31.7076C21.1243 31.4146 20.7269 31.25 20.3125 31.25H17.1875ZM26.5625 31.25C26.1481 31.25 25.7507 31.4146 25.4576 31.7076C25.1646 32.0007 25 32.3981 25 32.8125C25 33.2269 25.1646 33.6243 25.4576 33.9174C25.7507 34.2104 26.1481 34.375 26.5625 34.375H29.6875C30.1019 34.375 30.4993 34.2104 30.7924 33.9174C31.0854 33.6243 31.25 33.2269 31.25 32.8125C31.25 32.3981 31.0854 32.0007 30.7924 31.7076C30.4993 31.4146 30.1019 31.25 29.6875 31.25H26.5625ZM35.9375 31.25C35.5231 31.25 35.1257 31.4146 34.8326 31.7076C34.5396 32.0007 34.375 32.3981 34.375 32.8125C34.375 33.2269 34.5396 33.6243 34.8326 33.9174C35.1257 34.2104 35.5231 34.375 35.9375 34.375H39.0625C39.4769 34.375 39.8743 34.2104 40.1674 33.9174C40.4604 33.6243 40.625 33.2269 40.625 32.8125C40.625 32.3981 40.4604 32.0007 40.1674 31.7076C39.8743 31.4146 39.4769 31.25 39.0625 31.25H35.9375Z" fill="black"/>
</svg>
