<svg width="50" height="50" viewBox="0 0 50 50" fill="none" xmlns="http://www.w3.org/2000/svg">
<path d="M27.0833 43.75V39.5833H31.25V43.75H27.0833ZM22.9167 39.5833V29.1667H27.0833V39.5833H22.9167ZM39.5833 33.3333V25H43.75V33.3333H39.5833ZM35.4167 25V20.8333H39.5833V25H35.4167ZM10.4167 29.1667V25H14.5833V29.1667H10.4167ZM6.25 25V20.8333H10.4167V25H6.25ZM25 10.4167V6.25H29.1667V10.4167H25ZM9.375 15.625H15.625V9.375H9.375V15.625ZM6.25 18.75V6.25H18.75V18.75H6.25ZM9.375 40.625H15.625V34.375H9.375V40.625ZM6.25 43.75V31.25H18.75V43.75H6.25ZM34.375 15.625H40.625V9.375H34.375V15.625ZM31.25 18.75V6.25H43.75V18.75H31.25ZM35.4167 43.75V37.5H31.25V33.3333H39.5833V39.5833H43.75V43.75H35.4167ZM27.0833 29.1667V25H35.4167V29.1667H27.0833ZM18.75 29.1667V25H14.5833V20.8333H27.0833V25H22.9167V29.1667H18.75ZM20.8333 18.75V10.4167H25V14.5833H29.1667V18.75H20.8333ZM10.9375 14.0625V10.9375H14.0625V14.0625H10.9375ZM10.9375 39.0625V35.9375H14.0625V39.0625H10.9375ZM35.9375 14.0625V10.9375H39.0625V14.0625H35.9375Z" fill="black"/>
</svg>
