<svg width="50" height="50" viewBox="0 0 50 50" fill="none" xmlns="http://www.w3.org/2000/svg">
<path d="M14.5833 45.8334C13.4375 45.8334 12.4569 45.4258 11.6417 44.6105C10.825 43.7938 10.4167 42.8126 10.4167 41.6668C10.4167 40.5209 10.825 39.5397 11.6417 38.723C12.4569 37.9077 13.4375 37.5001 14.5833 37.5001C15.7292 37.5001 16.7097 37.9077 17.525 38.723C18.3417 39.5397 18.75 40.5209 18.75 41.6668C18.75 42.8126 18.3417 43.7938 17.525 44.6105C16.7097 45.4258 15.7292 45.8334 14.5833 45.8334ZM35.4167 45.8334C34.2708 45.8334 33.2903 45.4258 32.475 44.6105C31.6583 43.7938 31.25 42.8126 31.25 41.6668C31.25 40.5209 31.6583 39.5397 32.475 38.723C33.2903 37.9077 34.2708 37.5001 35.4167 37.5001C36.5625 37.5001 37.5438 37.9077 38.3604 38.723C39.1757 39.5397 39.5833 40.5209 39.5833 41.6668C39.5833 42.8126 39.1757 43.7938 38.3604 44.6105C37.5438 45.4258 36.5625 45.8334 35.4167 45.8334ZM14.5833 35.4168C13.0208 35.4168 11.8403 34.7306 11.0417 33.3584C10.2431 31.9876 10.2083 30.6251 10.9375 29.2709L13.75 24.1668L6.25 8.33342H4.11458C3.5243 8.33342 3.03819 8.13342 2.65625 7.73342C2.2743 7.3348 2.08333 6.84036 2.08333 6.25008C2.08333 5.6598 2.28333 5.16466 2.68333 4.76466C3.08194 4.36605 3.57639 4.16675 4.16667 4.16675H7.55208C7.93403 4.16675 8.29861 4.27091 8.64583 4.47925C8.99306 4.68758 9.25347 4.98272 9.42708 5.36467L10.8333 8.33342H41.5625C42.5 8.33342 43.1424 8.68064 43.4896 9.37508C43.8368 10.0695 43.8195 10.7987 43.4375 11.5626L36.0417 24.8959C35.6597 25.5904 35.1563 26.1286 34.5313 26.5105C33.9063 26.8925 33.1945 27.0834 32.3958 27.0834H16.875L14.5833 31.2501H37.5521C38.1424 31.2501 38.6285 31.4494 39.0104 31.848C39.3924 32.248 39.5833 32.7431 39.5833 33.3334C39.5833 33.9237 39.3833 34.4181 38.9833 34.8168C38.5847 35.2168 38.0903 35.4168 37.5 35.4168H14.5833Z" fill="black"/>
</svg>
