<svg width="50" height="50" viewBox="0 0 50 50" fill="none" xmlns="http://www.w3.org/2000/svg">
<g clip-path="url(#clip0_1060_1070)">
<path d="M12.5 15.1562V17.9688H15.625V15.1562H12.5ZM34.375 15.1562V17.9688H37.5V15.1562H34.375ZM12.5 20.7812V23.5938H15.625V20.7812H12.5ZM34.375 20.7812V23.5938H37.5V20.7812H34.375ZM12.5 26.4062V29.2188H15.625V26.4062H12.5ZM34.375 26.4062V29.2188H37.5V26.4062H34.375ZM12.5 32.0312V34.8437H15.625V32.0312H12.5ZM34.375 32.0312V34.8437H37.5V32.0312H34.375Z" fill="black"/>
<path d="M4.6875 9.375C3.4443 9.375 2.25201 9.86886 1.37294 10.7479C0.49386 11.627 0 12.8193 0 14.0625L0 18.75C0 19.1644 0.16462 19.5618 0.457646 19.8549C0.750671 20.1479 1.1481 20.3125 1.5625 20.3125C2.8057 20.3125 3.99799 20.8064 4.87706 21.6854C5.75614 22.5645 6.25 23.7568 6.25 25C6.25 26.2432 5.75614 27.4355 4.87706 28.3146C3.99799 29.1936 2.8057 29.6875 1.5625 29.6875C1.1481 29.6875 0.750671 29.8521 0.457646 30.1451C0.16462 30.4382 0 30.8356 0 31.25L0 35.9375C0 37.1807 0.49386 38.373 1.37294 39.2521C2.25201 40.1311 3.4443 40.625 4.6875 40.625H45.3125C46.5557 40.625 47.748 40.1311 48.6271 39.2521C49.5061 38.373 50 37.1807 50 35.9375V31.25C50 30.8356 49.8354 30.4382 49.5424 30.1451C49.2493 29.8521 48.8519 29.6875 48.4375 29.6875C47.1943 29.6875 46.002 29.1936 45.1229 28.3146C44.2439 27.4355 43.75 26.2432 43.75 25C43.75 23.7568 44.2439 22.5645 45.1229 21.6854C46.002 20.8064 47.1943 20.3125 48.4375 20.3125C48.8519 20.3125 49.2493 20.1479 49.5424 19.8549C49.8354 19.5618 50 19.1644 50 18.75V14.0625C50 12.8193 49.5061 11.627 48.6271 10.7479C47.748 9.86886 46.5557 9.375 45.3125 9.375H4.6875ZM3.125 14.0625C3.125 13.6481 3.28962 13.2507 3.58265 12.9576C3.87567 12.6646 4.2731 12.5 4.6875 12.5H45.3125C45.7269 12.5 46.1243 12.6646 46.4174 12.9576C46.7104 13.2507 46.875 13.6481 46.875 14.0625V17.3438C45.1089 17.7024 43.5211 18.6605 42.3807 20.0558C41.2402 21.4512 40.6172 23.1979 40.6172 25C40.6172 26.8021 41.2402 28.5488 42.3807 29.9442C43.5211 31.3395 45.1089 32.2976 46.875 32.6562V35.9375C46.875 36.3519 46.7104 36.7493 46.4174 37.0424C46.1243 37.3354 45.7269 37.5 45.3125 37.5H4.6875C4.2731 37.5 3.87567 37.3354 3.58265 37.0424C3.28962 36.7493 3.125 36.3519 3.125 35.9375V32.6562C4.89108 32.2976 6.47887 31.3395 7.61934 29.9442C8.75981 28.5488 9.38283 26.8021 9.38283 25C9.38283 23.1979 8.75981 21.4512 7.61934 20.0558C6.47887 18.6605 4.89108 17.7024 3.125 17.3438V14.0625Z" fill="black"/>
</g>
<defs>
<clipPath id="clip0_1060_1070">
<rect width="50" height="50" fill="white"/>
</clipPath>
</defs>
</svg>
