<svg width="50" height="50" viewBox="0 0 50 50" fill="none" xmlns="http://www.w3.org/2000/svg">
<path d="M25 24.9999C22.7083 24.9999 20.7465 24.1839 19.1146 22.552C17.4826 20.9201 16.6667 18.9583 16.6667 16.6666C16.6667 14.3749 17.4826 12.4131 19.1146 10.7812C20.7465 9.14922 22.7083 8.33325 25 8.33325C27.2917 8.33325 29.2535 9.14922 30.8854 10.7812C32.5174 12.4131 33.3333 14.3749 33.3333 16.6666C33.3333 18.9583 32.5174 20.9201 30.8854 22.552C29.2535 24.1839 27.2917 24.9999 25 24.9999ZM8.33333 41.6666V35.8333C8.33333 34.6527 8.6375 33.5673 9.24583 32.577C9.85277 31.5881 10.6597 30.8333 11.6667 30.3124C13.8194 29.236 16.0069 28.4284 18.2292 27.8895C20.4514 27.352 22.7083 27.0833 25 27.0833C27.2917 27.0833 29.5486 27.352 31.7708 27.8895C33.993 28.4284 36.1805 29.236 38.3333 30.3124C39.3403 30.8333 40.1472 31.5881 40.7542 32.577C41.3625 33.5673 41.6667 34.6527 41.6667 35.8333V41.6666H8.33333ZM12.5 37.4999H37.5V35.8333C37.5 35.4513 37.4049 35.1041 37.2146 34.7916C37.0229 34.4791 36.7708 34.236 36.4583 34.0624C34.5833 33.1249 32.691 32.4214 30.7812 31.952C28.8715 31.4839 26.9444 31.2499 25 31.2499C23.0555 31.2499 21.1285 31.4839 19.2187 31.952C17.309 32.4214 15.4167 33.1249 13.5417 34.0624C13.2292 34.236 12.9778 34.4791 12.7875 34.7916C12.5958 35.1041 12.5 35.4513 12.5 35.8333V37.4999ZM25 20.8333C26.1458 20.8333 27.1271 20.4249 27.9437 19.6083C28.759 18.793 29.1667 17.8124 29.1667 16.6666C29.1667 15.5208 28.759 14.5402 27.9437 13.7249C27.1271 12.9083 26.1458 12.4999 25 12.4999C23.8542 12.4999 22.8736 12.9083 22.0583 13.7249C21.2417 14.5402 20.8333 15.5208 20.8333 16.6666C20.8333 17.8124 21.2417 18.793 22.0583 19.6083C22.8736 20.4249 23.8542 20.8333 25 20.8333Z" fill="black"/>
</svg>
