<svg width="50" height="50" viewBox="0 0 50 50" fill="none" xmlns="http://www.w3.org/2000/svg">
<path d="M25 29.1668C24.4097 29.1668 23.9153 28.9668 23.5167 28.5668C23.1167 28.1681 22.9167 27.6737 22.9167 27.0834C22.9167 26.4931 23.1167 25.998 23.5167 25.598C23.9153 25.1994 24.4097 25.0001 25 25.0001C25.5903 25.0001 26.0854 25.1994 26.4854 25.598C26.884 25.998 27.0833 26.4931 27.0833 27.0834C27.0833 27.6737 26.884 28.1681 26.4854 28.5668C26.0854 28.9668 25.5903 29.1668 25 29.1668ZM16.6667 29.1668C16.0764 29.1668 15.5813 28.9668 15.1812 28.5668C14.7826 28.1681 14.5833 27.6737 14.5833 27.0834C14.5833 26.4931 14.7826 25.998 15.1812 25.598C15.5813 25.1994 16.0764 25.0001 16.6667 25.0001C17.2569 25.0001 17.7521 25.1994 18.1521 25.598C18.5507 25.998 18.75 26.4931 18.75 27.0834C18.75 27.6737 18.5507 28.1681 18.1521 28.5668C17.7521 28.9668 17.2569 29.1668 16.6667 29.1668ZM33.3333 29.1668C32.7431 29.1668 32.2486 28.9668 31.85 28.5668C31.45 28.1681 31.25 27.6737 31.25 27.0834C31.25 26.4931 31.45 25.998 31.85 25.598C32.2486 25.1994 32.7431 25.0001 33.3333 25.0001C33.9236 25.0001 34.4181 25.1994 34.8167 25.598C35.2167 25.998 35.4167 26.4931 35.4167 27.0834C35.4167 27.6737 35.2167 28.1681 34.8167 28.5668C34.4181 28.9668 33.9236 29.1668 33.3333 29.1668ZM25 37.5001C24.4097 37.5001 23.9153 37.3001 23.5167 36.9001C23.1167 36.5015 22.9167 36.007 22.9167 35.4168C22.9167 34.8265 23.1167 34.332 23.5167 33.9334C23.9153 33.5334 24.4097 33.3334 25 33.3334C25.5903 33.3334 26.0854 33.5334 26.4854 33.9334C26.884 34.332 27.0833 34.8265 27.0833 35.4168C27.0833 36.007 26.884 36.5015 26.4854 36.9001C26.0854 37.3001 25.5903 37.5001 25 37.5001ZM16.6667 37.5001C16.0764 37.5001 15.5813 37.3001 15.1812 36.9001C14.7826 36.5015 14.5833 36.007 14.5833 35.4168C14.5833 34.8265 14.7826 34.332 15.1812 33.9334C15.5813 33.5334 16.0764 33.3334 16.6667 33.3334C17.2569 33.3334 17.7521 33.5334 18.1521 33.9334C18.5507 34.332 18.75 34.8265 18.75 35.4168C18.75 36.007 18.5507 36.5015 18.1521 36.9001C17.7521 37.3001 17.2569 37.5001 16.6667 37.5001ZM33.3333 37.5001C32.7431 37.5001 32.2486 37.3001 31.85 36.9001C31.45 36.5015 31.25 36.007 31.25 35.4168C31.25 34.8265 31.45 34.332 31.85 33.9334C32.2486 33.5334 32.7431 33.3334 33.3333 33.3334C33.9236 33.3334 34.4181 33.5334 34.8167 33.9334C35.2167 34.332 35.4167 34.8265 35.4167 35.4168C35.4167 36.007 35.2167 36.5015 34.8167 36.9001C34.4181 37.3001 33.9236 37.5001 33.3333 37.5001ZM10.4167 45.8334C9.27083 45.8334 8.28958 45.4258 7.47292 44.6105C6.65764 43.7938 6.25 42.8126 6.25 41.6668V12.5001C6.25 11.3543 6.65764 10.3737 7.47292 9.55842C8.28958 8.74175 9.27083 8.33342 10.4167 8.33342H12.5V6.25008C12.5 5.6598 12.6993 5.16466 13.0979 4.76466C13.4979 4.36605 13.9931 4.16675 14.5833 4.16675C15.1736 4.16675 15.6687 4.36605 16.0687 4.76466C16.4674 5.16466 16.6667 5.6598 16.6667 6.25008V8.33342H33.3333V6.25008C33.3333 5.6598 33.5333 5.16466 33.9333 4.76466C34.3319 4.36605 34.8264 4.16675 35.4167 4.16675C36.0069 4.16675 36.5014 4.36605 36.9 4.76466C37.3 5.16466 37.5 5.6598 37.5 6.25008V8.33342H39.5833C40.7292 8.33342 41.7104 8.74175 42.5271 9.55842C43.3424 10.3737 43.75 11.3543 43.75 12.5001V41.6668C43.75 42.8126 43.3424 43.7938 42.5271 44.6105C41.7104 45.4258 40.7292 45.8334 39.5833 45.8334H10.4167ZM10.4167 41.6668H39.5833V20.8334H10.4167V41.6668Z" fill="black"/>
</svg>
