<svg width="50" height="50" viewBox="0 0 50 50" fill="none" xmlns="http://www.w3.org/2000/svg">
<path d="M30.8334 16.6666L33.3334 19.1666L19.1667 33.3333L16.6667 30.8333L30.8334 16.6666ZM8.33335 8.33325H41.6667C43.9792 8.33325 45.8334 10.1874 45.8334 12.4999V20.8333C44.7283 20.8333 43.6685 21.2722 42.8871 22.0536C42.1057 22.835 41.6667 23.8948 41.6667 24.9999C41.6667 26.105 42.1057 27.1648 42.8871 27.9462C43.6685 28.7276 44.7283 29.1666 45.8334 29.1666V37.4999C45.8334 39.8124 43.9792 41.6666 41.6667 41.6666H8.33335C7.22828 41.6666 6.16848 41.2276 5.38708 40.4462C4.60567 39.6648 4.16669 38.605 4.16669 37.4999V29.1666C6.47919 29.1666 8.33335 27.3124 8.33335 24.9999C8.33335 23.8948 7.89437 22.835 7.11297 22.0536C6.33156 21.2722 5.27176 20.8333 4.16669 20.8333V12.4999C4.16669 11.3948 4.60567 10.335 5.38708 9.55364C6.16848 8.77224 7.22828 8.33325 8.33335 8.33325ZM8.33335 12.4999V17.7916C9.59935 18.5216 10.6508 19.5721 11.3818 20.8375C12.1128 22.1029 12.4977 23.5385 12.4977 24.9999C12.4977 26.4613 12.1128 27.8969 11.3818 29.1623C10.6508 30.4277 9.59935 31.4783 8.33335 32.2083V37.4999H41.6667V32.2083C40.4007 31.4783 39.3493 30.4277 38.6182 29.1623C37.8872 27.8969 37.5023 26.4613 37.5023 24.9999C37.5023 23.5385 37.8872 22.1029 38.6182 20.8375C39.3493 19.5721 40.4007 18.5216 41.6667 17.7916V12.4999H8.33335ZM19.7917 16.6666C21.5209 16.6666 22.9167 18.0624 22.9167 19.7916C22.9167 21.5208 21.5209 22.9166 19.7917 22.9166C18.0625 22.9166 16.6667 21.5208 16.6667 19.7916C16.6667 18.0624 18.0625 16.6666 19.7917 16.6666ZM30.2084 27.0833C31.9375 27.0833 33.3334 28.4791 33.3334 30.2083C33.3334 31.9374 31.9375 33.3333 30.2084 33.3333C28.4792 33.3333 27.0834 31.9374 27.0834 30.2083C27.0834 28.4791 28.4792 27.0833 30.2084 27.0833Z" fill="black"/>
</svg>
