<svg width="50" height="50" viewBox="0 0 50 50" fill="none" xmlns="http://www.w3.org/2000/svg">
<path d="M6.24998 43.7501C5.10415 43.7501 4.12359 43.3424 3.30831 42.5272C2.49165 41.7105 2.08331 40.7292 2.08331 39.5834V12.5001H6.24998V39.5834H41.6666V43.7501H6.24998ZM14.5833 35.4167C13.4375 35.4167 12.4569 35.0091 11.6416 34.1938C10.825 33.3772 10.4166 32.3959 10.4166 31.2501V8.33341C10.4166 7.18758 10.825 6.20633 11.6416 5.38966C12.4569 4.57439 13.4375 4.16675 14.5833 4.16675H25L29.1666 8.33341H43.75C44.8958 8.33341 45.8771 8.74175 46.6937 9.55841C47.509 10.3737 47.9166 11.3542 47.9166 12.5001V31.2501C47.9166 32.3959 47.509 33.3772 46.6937 34.1938C45.8771 35.0091 44.8958 35.4167 43.75 35.4167H14.5833Z" fill="black"/>
</svg>
