<svg width="50" height="50" viewBox="0 0 50 50" fill="none" xmlns="http://www.w3.org/2000/svg">
<path d="M43.75 37.5001H12.5C11.9475 37.5001 11.4176 37.7196 11.0269 38.1103C10.6362 38.501 10.4167 39.0309 10.4167 39.5834C10.4167 40.1359 10.6362 40.6659 11.0269 41.0566C11.4176 41.4473 11.9475 41.6667 12.5 41.6667H43.75V45.8334H12.5C10.8424 45.8334 9.25269 45.1749 8.08058 44.0028C6.90848 42.8307 6.25 41.241 6.25 39.5834V8.33341C6.25 7.22835 6.68899 6.16854 7.47039 5.38714C8.25179 4.60573 9.3116 4.16675 10.4167 4.16675H43.75V37.5001ZM33.3333 18.7501V14.5834H16.6667V18.7501H33.3333Z" fill="black"/>
</svg>
