<svg width="50" height="50" viewBox="0 0 50 50" fill="none" xmlns="http://www.w3.org/2000/svg">
<path d="M12.5 41.6667H22.9167V45.8334H12.5C10.1875 45.8334 8.33333 43.9792 8.33333 41.6667V8.33341C8.33333 7.22835 8.77231 6.16854 9.55372 5.38714C10.3351 4.60573 11.3949 4.16675 12.5 4.16675H37.5C38.6051 4.16675 39.6649 4.60573 40.4463 5.38714C41.2277 6.16854 41.6667 7.22835 41.6667 8.33341V21.4584C41.2083 21.7084 40.7708 22.0001 40.3958 22.3751L37.5 25.2709V8.33341H27.0833V25.0001L21.875 20.3126L16.6667 25.0001V8.33341H12.5V41.6667ZM47.6042 28.0626L44.8542 25.3126C44.4375 24.8959 43.75 24.8959 43.3542 25.3126L41.3125 27.3542L45.5625 31.6042L47.6042 29.5626C48.0208 29.1667 48.0208 28.4792 47.6042 28.0626ZM27.0833 41.5834V45.8334H31.3333L44.1042 33.0834L39.8542 28.8126L27.0833 41.5834Z" fill="black"/>
</svg>
