<svg width="50" height="50" viewBox="0 0 50 50" fill="none" xmlns="http://www.w3.org/2000/svg">
<path d="M9.375 40.625C8.50694 40.625 7.76944 40.3208 7.1625 39.7125C6.55417 39.1056 6.25 38.3681 6.25 37.5C6.25 36.6319 6.55417 35.8944 7.1625 35.2875C7.76944 34.6792 8.50694 34.375 9.375 34.375C10.2431 34.375 10.9806 34.6792 11.5875 35.2875C12.1958 35.8944 12.5 36.6319 12.5 37.5C12.5 38.3681 12.1958 39.1056 11.5875 39.7125C10.9806 40.3208 10.2431 40.625 9.375 40.625ZM16.6667 39.5833V35.4167H43.75V39.5833H16.6667ZM9.375 28.125C8.50694 28.125 7.76944 27.8208 7.1625 27.2125C6.55417 26.6056 6.25 25.8681 6.25 25C6.25 24.1319 6.55417 23.3944 7.1625 22.7875C7.76944 22.1792 8.50694 21.875 9.375 21.875C10.2431 21.875 10.9806 22.1792 11.5875 22.7875C12.1958 23.3944 12.5 24.1319 12.5 25C12.5 25.8681 12.1958 26.6056 11.5875 27.2125C10.9806 27.8208 10.2431 28.125 9.375 28.125ZM16.6667 27.0833V22.9167H43.75V27.0833H16.6667ZM9.375 15.625C8.50694 15.625 7.76944 15.3208 7.1625 14.7125C6.55417 14.1056 6.25 13.3681 6.25 12.5C6.25 11.6319 6.55417 10.8944 7.1625 10.2875C7.76944 9.67917 8.50694 9.375 9.375 9.375C10.2431 9.375 10.9806 9.67917 11.5875 10.2875C12.1958 10.8944 12.5 11.6319 12.5 12.5C12.5 13.3681 12.1958 14.1056 11.5875 14.7125C10.9806 15.3208 10.2431 15.625 9.375 15.625ZM16.6667 14.5833V10.4167H43.75V14.5833H16.6667Z" fill="black"/>
</svg>
