<svg width="50" height="50" viewBox="0 0 50 50" fill="none" xmlns="http://www.w3.org/2000/svg">
<path d="M12.5002 41.6667H22.9168V45.8334H12.5002C10.1877 45.8334 8.3335 43.9792 8.3335 41.6667V8.33335C8.3335 7.22828 8.77248 6.16848 9.55388 5.38708C10.3353 4.60567 11.3951 4.16669 12.5002 4.16669H37.5002C38.6052 4.16669 39.665 4.60567 40.4464 5.38708C41.2278 6.16848 41.6668 7.22828 41.6668 8.33335V21.4584C41.2085 21.7084 40.771 22 40.396 22.375L37.5002 25.2709V8.33335H27.0835V25L21.8752 20.3125L16.6668 25V8.33335H12.5002V41.6667ZM47.6043 28.0625L44.8543 25.3125C44.4377 24.8959 43.7502 24.8959 43.3543 25.3125L41.3127 27.3542L45.5627 31.6042L47.6043 29.5625C48.021 29.1667 48.021 28.4792 47.6043 28.0625ZM27.0835 41.5834V45.8334H31.3335L44.1043 33.0834L39.8543 28.8125L27.0835 41.5834Z" fill="black"/>
</svg>
