<svg width="50" height="50" viewBox="0 0 50 50" fill="none" xmlns="http://www.w3.org/2000/svg">
<path d="M22.5 8.12504L9.99998 17.5C8.95831 18.2917 8.33331 19.5209 8.33331 20.8334V39.5834C8.33331 41.875 10.2083 43.75 12.5 43.75H37.5C39.7916 43.75 41.6666 41.875 41.6666 39.5834V20.8334C41.6666 19.5209 41.0416 18.2917 40 17.5L27.5 8.12504C26.7774 7.5873 25.9007 7.29688 25 7.29688C24.0993 7.29687 23.2226 7.5873 22.5 8.12504ZM26.0416 26.0417C26.0416 27.7709 24.6458 29.1667 22.9166 29.1667V36.4584C22.9166 37.0417 22.4583 37.5 21.875 37.5C21.2916 37.5 20.8333 37.0417 20.8333 36.4584V29.1667C19.1041 29.1667 17.7083 27.7709 17.7083 26.0417V20.8334C17.7083 20.25 18.1666 19.7917 18.75 19.7917C19.3333 19.7917 19.7916 20.25 19.7916 20.8334V26.0417H20.8333V20.8334C20.8333 20.25 21.2916 19.7917 21.875 19.7917C22.4583 19.7917 22.9166 20.25 22.9166 20.8334V26.0417H23.9583V20.8334C23.9583 20.25 24.4166 19.7917 25 19.7917C25.5833 19.7917 26.0416 20.25 26.0416 20.8334V26.0417ZM30.2083 37.5C29.625 37.5 29.1666 37.0417 29.1666 36.4584V30.2084H28.125C27.5416 30.2084 27.0833 29.75 27.0833 29.1667V23.9584C27.0833 22.125 28.2708 20.5625 29.9166 20.0209C30.5625 19.7917 31.25 20.3125 31.25 21.0209V36.4584C31.25 37.0417 30.7916 37.5 30.2083 37.5Z" fill="black"/>
</svg>
