<svg width="17" height="16" viewBox="0 0 17 16" fill="none" xmlns="http://www.w3.org/2000/svg">
<g clip-path="url(#clip0_1060_1030)">
<path d="M16.5 8C16.5 10.1217 15.6571 12.1566 14.1569 13.6569C12.6566 15.1571 10.6217 16 8.5 16C6.37827 16 4.34344 15.1571 2.84315 13.6569C1.34285 12.1566 0.5 10.1217 0.5 8C0.5 5.87827 1.34285 3.84344 2.84315 2.34315C4.34344 0.842855 6.37827 0 8.5 0C10.6217 0 12.6566 0.842855 14.1569 2.34315C15.6571 3.84344 16.5 5.87827 16.5 8ZM8.5 4C8.37361 4.00007 8.24863 4.02662 8.13312 4.07793C8.01761 4.12924 7.91413 4.20418 7.82934 4.29791C7.74456 4.39165 7.68035 4.5021 7.64084 4.62217C7.60134 4.74223 7.58743 4.86923 7.6 4.995L7.95 8.502C7.96176 8.63977 8.0248 8.76811 8.12664 8.86164C8.22849 8.95516 8.36173 9.00705 8.5 9.00705C8.63827 9.00705 8.77151 8.95516 8.87336 8.86164C8.9752 8.76811 9.03824 8.63977 9.05 8.502L9.4 4.995C9.41257 4.86923 9.39866 4.74223 9.35915 4.62217C9.31965 4.5021 9.25544 4.39165 9.17066 4.29791C9.08587 4.20418 8.98239 4.12924 8.86688 4.07793C8.75137 4.02662 8.62639 4.00007 8.5 4ZM8.502 10C8.23678 10 7.98243 10.1054 7.79489 10.2929C7.60736 10.4804 7.502 10.7348 7.502 11C7.502 11.2652 7.60736 11.5196 7.79489 11.7071C7.98243 11.8946 8.23678 12 8.502 12C8.76722 12 9.02157 11.8946 9.20911 11.7071C9.39664 11.5196 9.502 11.2652 9.502 11C9.502 10.7348 9.39664 10.4804 9.20911 10.2929C9.02157 10.1054 8.76722 10 8.502 10Z" fill="#FF5B5B"/>
</g>
<defs>
<clipPath id="clip0_1060_1030">
<rect width="16" height="16" fill="white" transform="translate(0.5)"/>
</clipPath>
</defs>
</svg>
