<svg width="16" height="17" viewBox="0 0 16 17" fill="none" xmlns="http://www.w3.org/2000/svg">
<path d="M7.84667 2.5C6.08001 2.54667 4.51334 3.35333 3.44667 4.60667L2.56667 3.73333C2.51968 3.68727 2.46009 3.65614 2.39543 3.64388C2.33078 3.63162 2.26394 3.63877 2.20334 3.66444C2.14274 3.6901 2.09109 3.73313 2.05491 3.7881C2.01872 3.84307 1.99962 3.90752 2.00001 3.97333V6.83333C2.00001 7.02 2.14667 7.16667 2.33334 7.16667H5.19334C5.49334 7.16667 5.64001 6.80667 5.42667 6.6L4.39334 5.56C5.25334 4.51333 6.54667 3.83333 8.00001 3.83333C10.88 3.83333 13.16 6.46 12.5733 9.44C12.2133 11.2867 10.7 12.76 8.85334 13.0867C6.32001 13.54 4.06667 11.9267 3.48667 9.64667C3.40667 9.36667 3.14001 9.16667 2.84667 9.16667C2.41334 9.16667 2.08667 9.57333 2.19334 9.98667C2.85334 12.58 5.20001 14.5 8.00001 14.5C11.3733 14.5 14.0933 11.72 14 8.32667C13.9067 5.07333 11.1 2.42 7.84667 2.5ZM9.33334 8.5C9.33334 7.76667 8.73334 7.16667 8.00001 7.16667C7.26667 7.16667 6.66667 7.76667 6.66667 8.5C6.66667 9.23333 7.26667 9.83333 8.00001 9.83333C8.73334 9.83333 9.33334 9.23333 9.33334 8.5Z" fill="black"/>
</svg>
